# xmcd
#
# Track frame offsets:
# 150
# 10824
# 20565
# 28927
# 38117
# 47071
# 58655
# 70670
# 78188
# 88455
# 102185
# 109364
# 117050
# 127937
# 137832
#
# Disc length: 1956 seconds
#
#
# Revision: 0
# Processed by: cddbd v1.5.2PL0 Copyright (c) Steve Scherf et al.
# Submitted via: FreeRIP 2.90 
#
DISCID=c707a20f
DTITLE=Roy Clark - Hymn's from the Old Country Church
DYEAR=2000
DGENRE=Gospel
TTITLE0=When the Role is Called up Yonder
TTITLE1=I Saw the Light
TTITLE2=At the Cross
TTITLE3=Bringing in the Sheeves
TTITLE4=The Church in the Wildwood
TTITLE5=Unclouded Day
TTITLE6=Just over in Glory Land
TTITLE7=Are You Washed in the Blood
TTITLE8=Shall We Gather at the River
TTITLE9='Tis So Sweet to Trust in Jesus
TTITLE10=Old Time Religion
TTITLE11=Peace Like a River
TTITLE12=When We All Get to Heaven
TTITLE13=In the Sweet Bye and Bye
TTITLE14=I AM bound for the Promised Land
EXTD=
EXTT0=
EXTT1=
EXTT2=
EXTT3=
EXTT4=
EXTT5=
EXTT6=
EXTT7=
EXTT8=
EXTT9=
EXTT10=
EXTT11=
EXTT12=
EXTT13=
EXTT14=
PLAYORDER=
